<svg width="172" height="42" viewBox="0 0 172 42" fill="none" xmlns="http://www.w3.org/2000/svg">
<path d="M35.9707 35.5958C35.8556 35.7989 35.686 35.9685 35.4801 36.0866C35.274 36.2047 35.0391 36.2674 34.7996 36.2677H26.7689C26.5436 36.2677 26.322 36.2125 26.1247 36.1075C25.9272 36.0026 25.7604 35.851 25.6396 35.667L18.8654 25.3648L9.02108 35.8435C8.7811 36.093 8.44918 36.2409 8.09729 36.2551C7.7454 36.2693 7.40188 36.1488 7.14124 35.9195C6.88059 35.6903 6.72382 35.3708 6.70489 35.0305C6.68598 34.6901 6.80645 34.3563 7.04017 34.1014L17.3747 23.0915L6.90131 7.17264C6.77231 6.97679 6.7001 6.75099 6.69225 6.51888C6.68438 6.28677 6.74114 6.05687 6.85659 5.85328C6.97206 5.64968 7.14195 5.47987 7.34849 5.36161C7.55504 5.24337 7.79064 5.18104 8.03062 5.18115H16.0613C16.2865 5.18122 16.5081 5.23631 16.7056 5.3413C16.903 5.44631 17.0699 5.59784 17.1906 5.78184L23.9649 16.0841L33.8091 5.60535C34.0491 5.35587 34.3811 5.208 34.7329 5.19378C35.0848 5.17954 35.4284 5.30011 35.689 5.52935C35.9496 5.75858 36.1064 6.07799 36.1252 6.41833C36.1443 6.75868 36.0237 7.09253 35.7901 7.3475L25.4556 18.3493L35.9289 34.2778C36.0572 34.4738 36.1287 34.6995 36.136 34.9313C36.1435 35.1631 36.0864 35.3927 35.9707 35.5958Z" fill="white"/>
<g clip-path="url(#clip0_7_127)">
<path d="M100.137 0.690918C101.304 0.690918 102.423 1.15449 103.248 1.97966C104.073 2.80482 104.537 3.92399 104.537 5.09095V35.8911C104.537 37.0582 104.073 38.1773 103.248 39.0024C102.423 39.8276 101.304 40.2912 100.137 40.2912H69.3364C68.1695 40.2912 67.0503 39.8276 66.2251 39.0024C65.4 38.1773 64.9364 37.0582 64.9364 35.8911V5.09095C64.9364 3.92399 65.4 2.80482 66.2251 1.97966C67.0503 1.15449 68.1695 0.690918 69.3364 0.690918H100.137ZM99.0367 34.7912V23.1311C99.0367 21.2289 98.2809 19.4047 96.9359 18.0597C95.5909 16.7146 93.7668 15.959 91.8645 15.959C89.9945 15.959 87.8165 17.1031 86.7605 18.8191V16.3771H80.6225V34.7912H86.7605V23.945C86.7605 22.251 88.1246 20.8651 89.8186 20.8651C90.6354 20.8651 91.4188 21.1895 91.9965 21.7672C92.5741 22.3448 92.8985 23.1282 92.8985 23.945V34.7912H99.0367ZM73.4725 12.923C74.4527 12.923 75.3928 12.5336 76.0859 11.8405C76.7791 11.1473 77.1685 10.2072 77.1685 9.22698C77.1685 7.18096 75.5185 5.50895 73.4725 5.50895C72.4864 5.50895 71.5407 5.90066 70.8434 6.59793C70.1461 7.29521 69.7544 8.2409 69.7544 9.22698C69.7544 11.273 71.4264 12.923 73.4725 12.923ZM76.5305 34.7912V16.3771H70.4364V34.7912H76.5305Z" fill="white"/>
</g>
<g clip-path="url(#clip1_7_127)">
<path d="M159.405 0H140.753C137.868 0.00308578 135.103 1.15039 133.063 3.19017C131.023 5.22996 129.876 7.99561 129.873 10.8803V29.5322C129.876 32.4169 131.023 35.1825 133.063 37.2223C135.103 39.2622 137.868 40.4095 140.753 40.4125H159.405C162.29 40.4095 165.055 39.2622 167.095 37.2223C169.135 35.1825 170.282 32.4169 170.285 29.5322V10.8803C170.282 7.99561 169.135 5.22996 167.095 3.19017C165.055 1.15039 162.29 0.00308578 159.405 0ZM150.079 29.5322C148.234 29.5322 146.431 28.9852 144.898 27.9605C143.364 26.9357 142.169 25.4792 141.463 23.7751C140.757 22.071 140.572 20.1959 140.932 18.3868C141.292 16.5778 142.18 14.916 143.484 13.6118C144.789 12.3075 146.451 11.4193 148.259 11.0595C150.069 10.6996 151.944 10.8843 153.648 11.5902C155.352 12.296 156.808 13.4914 157.833 15.025C158.858 16.5586 159.405 18.3618 159.405 20.2063C159.402 22.6788 158.419 25.0494 156.671 26.7979C154.922 28.5463 152.551 29.5296 150.079 29.5322ZM161.736 10.8803C161.275 10.8803 160.825 10.7436 160.441 10.4874C160.058 10.2312 159.759 9.86705 159.582 9.44103C159.406 9.015 159.36 8.54622 159.45 8.09394C159.54 7.64168 159.762 7.22625 160.088 6.90019C160.414 6.57413 160.829 6.35207 161.282 6.2621C161.734 6.17214 162.203 6.21832 162.629 6.39478C163.055 6.57125 163.419 6.87009 163.675 7.2535C163.931 7.6369 164.068 8.08767 164.068 8.5488C164.068 9.16715 163.822 9.76018 163.385 10.1974C162.948 10.6347 162.355 10.8803 161.736 10.8803ZM156.296 20.2063C156.296 21.4359 155.932 22.6379 155.248 23.6605C154.565 24.6829 153.594 25.4798 152.458 25.9504C151.322 26.4209 150.072 26.544 148.866 26.3041C147.66 26.0642 146.552 25.472 145.683 24.6026C144.813 23.733 144.221 22.6252 143.981 21.4192C143.741 20.2132 143.864 18.9631 144.335 17.827C144.805 16.691 145.602 15.72 146.625 15.0368C147.647 14.3536 148.849 13.9889 150.079 13.9889C151.728 13.9889 153.309 14.644 154.475 15.8099C155.641 16.9759 156.296 18.5573 156.296 20.2063Z" fill="white"/>
</g>
<defs>
<clipPath id="clip0_7_127">
<rect width="40.0671" height="40.0671" fill="white" transform="translate(64.9364 0.690918)"/>
</clipPath>
<clipPath id="clip1_7_127">
<rect width="41.4487" height="41.4487" fill="white" transform="translate(129.873)"/>
</clipPath>
</defs>
</svg>
